<svg width="412" height="184" viewBox="0 0 412 184" fill="none" xmlns="http://www.w3.org/2000/svg">
<rect x="0.5" y="0.5" width="411" height="183" stroke="black"/>
<path d="M177.766 86.76H182.566V87.576H177.766V86.76ZM179.398 89.112H180.382V91.704H179.398V89.112ZM182.158 86.76H183.142V87.348C183.142 87.684 183.13 88.096 183.106 88.584C183.082 89.072 182.998 89.636 182.854 90.276L181.882 90.192C182.018 89.56 182.098 89.012 182.122 88.548C182.146 88.084 182.158 87.684 182.158 87.348V86.76ZM184.618 86.076H185.626V92.844H184.618V86.076ZM185.158 89.028H187.174V89.868H185.158V89.028ZM177.214 92.112L177.106 91.284C177.762 91.284 178.474 91.276 179.242 91.26C180.018 91.244 180.806 91.216 181.606 91.176C182.406 91.128 183.17 91.056 183.898 90.96L183.958 91.68C183.214 91.8 182.446 91.892 181.654 91.956C180.862 92.02 180.086 92.064 179.326 92.088C178.566 92.104 177.862 92.112 177.214 92.112ZM182.122 92.988C182.866 92.988 183.506 93.064 184.042 93.216C184.586 93.368 185.002 93.592 185.29 93.888C185.578 94.176 185.722 94.524 185.722 94.932C185.722 95.348 185.578 95.704 185.29 96C185.002 96.288 184.586 96.508 184.042 96.66C183.506 96.82 182.866 96.9 182.122 96.9C181.378 96.9 180.738 96.82 180.202 96.66C179.666 96.508 179.25 96.288 178.954 96C178.666 95.704 178.522 95.348 178.522 94.932C178.522 94.524 178.666 94.176 178.954 93.888C179.25 93.592 179.666 93.368 180.202 93.216C180.738 93.064 181.378 92.988 182.122 92.988ZM182.122 93.768C181.314 93.768 180.678 93.872 180.214 94.08C179.75 94.28 179.518 94.564 179.518 94.932C179.518 95.308 179.75 95.6 180.214 95.808C180.678 96.008 181.314 96.108 182.122 96.108C182.93 96.108 183.562 96.008 184.018 95.808C184.482 95.6 184.714 95.308 184.714 94.932C184.714 94.564 184.482 94.28 184.018 94.08C183.562 93.872 182.93 93.768 182.122 93.768ZM189.511 87.168H196.495V87.984H189.511V87.168ZM188.467 94.584H198.271V95.412H188.467V94.584ZM192.283 90.708H193.267V95.004H192.283V90.708ZM196.111 87.168H197.107V88.236C197.107 88.684 197.099 89.156 197.083 89.652C197.075 90.148 197.043 90.692 196.987 91.284C196.939 91.876 196.847 92.536 196.711 93.264L195.703 93.144C195.911 92.104 196.031 91.192 196.063 90.408C196.095 89.616 196.111 88.892 196.111 88.236V87.168ZM210.867 86.076H211.863V96.948H210.867V86.076ZM206.139 86.916C206.675 86.916 207.147 87.072 207.555 87.384C207.971 87.688 208.295 88.124 208.527 88.692C208.767 89.26 208.887 89.928 208.887 90.696C208.887 91.464 208.767 92.132 208.527 92.7C208.295 93.268 207.971 93.708 207.555 94.02C207.147 94.332 206.675 94.488 206.139 94.488C205.603 94.488 205.127 94.332 204.711 94.02C204.295 93.708 203.967 93.268 203.727 92.7C203.495 92.132 203.379 91.464 203.379 90.696C203.379 89.928 203.495 89.26 203.727 88.692C203.967 88.124 204.295 87.688 204.711 87.384C205.127 87.072 205.603 86.916 206.139 86.916ZM206.139 87.804C205.779 87.804 205.463 87.924 205.191 88.164C204.927 88.396 204.719 88.732 204.567 89.172C204.415 89.604 204.339 90.112 204.339 90.696C204.339 91.28 204.415 91.792 204.567 92.232C204.719 92.664 204.927 93 205.191 93.24C205.463 93.48 205.779 93.6 206.139 93.6C206.491 93.6 206.799 93.48 207.063 93.24C207.335 93 207.547 92.664 207.699 92.232C207.851 91.792 207.927 91.28 207.927 90.696C207.927 90.112 207.851 89.604 207.699 89.172C207.547 88.732 207.335 88.396 207.063 88.164C206.799 87.924 206.491 87.804 206.139 87.804ZM214.884 87.144H219.876V94.212H214.884V87.144ZM218.916 87.936H215.868V93.408H218.916V87.936ZM222.156 86.076H223.152V96.948H222.156V86.076ZM228.429 87.636H229.245V89.388C229.245 89.964 229.165 90.532 229.005 91.092C228.845 91.644 228.621 92.168 228.333 92.664C228.053 93.152 227.725 93.584 227.349 93.96C226.973 94.336 226.569 94.632 226.137 94.848L225.561 94.056C225.953 93.864 226.321 93.604 226.665 93.276C227.017 92.948 227.325 92.572 227.589 92.148C227.853 91.724 228.057 91.276 228.201 90.804C228.353 90.332 228.429 89.86 228.429 89.388V87.636ZM228.633 87.636H229.437V89.388C229.437 89.844 229.509 90.3 229.653 90.756C229.805 91.204 230.013 91.628 230.277 92.028C230.549 92.42 230.857 92.768 231.201 93.072C231.553 93.376 231.929 93.616 232.329 93.792L231.777 94.584C231.337 94.376 230.925 94.096 230.541 93.744C230.157 93.392 229.821 92.988 229.533 92.532C229.253 92.068 229.033 91.572 228.873 91.044C228.713 90.508 228.633 89.956 228.633 89.388V87.636ZM225.909 87.192H231.969V88.02H225.909V87.192ZM233.445 86.076H234.441V96.936H233.445V86.076Z" fill="black"/>
</svg>
