<svg width="30" height="31" viewBox="0 0 30 31" fill="none" xmlns="http://www.w3.org/2000/svg">
<path d="M12.375 14.375L22.8485 3.90161C23.3458 3.40436 24.0202 3.125 24.7234 3.125C26.1878 3.125 27.375 4.31214 27.375 5.77655V5.83505C27.375 6.50455 27.1272 7.15035 26.6793 7.64799L16.875 18.875C16.875 18.875 16.875 17.375 15.375 15.875C13.875 14.375 12.375 14.375 12.375 14.375Z" stroke="#2966CC" stroke-width="2.25" stroke-linejoin="round"/>
<path d="M13.875 22.625C13.875 25.1103 12.1969 26.6844 10.875 27.125C9.55312 27.5656 8.625 27.875 6.375 27.875C4.125 27.875 2.625 27.125 2.625 27.125C2.625 27.125 4.875 25.625 4.875 24.125C4.875 22.625 4.875 22.625 4.875 22.625C4.875 20.1397 6.88971 18.125 9.375 18.125C12 18.125 13.875 20 13.875 22.625Z" stroke="#2966CC" stroke-width="2.25" stroke-linejoin="round"/>
</svg>
