<svg width="28" height="27" viewBox="0 0 28 27" fill="none" xmlns="http://www.w3.org/2000/svg">
<path d="M1.625 5.925C1.625 4.24484 1.625 3.40476 1.95198 2.76303C2.2396 2.19854 2.69854 1.7396 3.26303 1.45198C3.90476 1.125 4.74484 1.125 6.425 1.125H6.575C8.25516 1.125 9.09524 1.125 9.73697 1.45198C10.3015 1.7396 10.7604 2.19854 11.048 2.76303C11.375 3.40476 11.375 4.24484 11.375 5.925V6.075C11.375 7.75516 11.375 8.59524 11.048 9.23697C10.7604 9.80146 10.3015 10.2604 9.73697 10.548C9.09524 10.875 8.25516 10.875 6.575 10.875H6.425C4.74484 10.875 3.90476 10.875 3.26303 10.548C2.69854 10.2604 2.2396 9.80146 1.95198 9.23697C1.625 8.59524 1.625 7.75516 1.625 6.075V5.925Z" stroke="#2966CC" stroke-width="1.5" stroke-linejoin="round"/>
<path d="M16.625 5.925C16.625 4.24484 16.625 3.40476 16.952 2.76303C17.2396 2.19854 17.6985 1.7396 18.263 1.45198C18.9048 1.125 19.7448 1.125 21.425 1.125H21.575C23.2552 1.125 24.0952 1.125 24.737 1.45198C25.3015 1.7396 25.7604 2.19854 26.048 2.76303C26.375 3.40476 26.375 4.24484 26.375 5.925V6.075C26.375 7.75516 26.375 8.59524 26.048 9.23697C25.7604 9.80146 25.3015 10.2604 24.737 10.548C24.0952 10.875 23.2552 10.875 21.575 10.875H21.425C19.7448 10.875 18.9048 10.875 18.263 10.548C17.6985 10.2604 17.2396 9.80146 16.952 9.23697C16.625 8.59524 16.625 7.75516 16.625 6.075V5.925Z" stroke="#2966CC" stroke-width="1.5" stroke-linejoin="round"/>
<path d="M1.625 20.925C1.625 19.2448 1.625 18.4048 1.95198 17.763C2.2396 17.1985 2.69854 16.7396 3.26303 16.452C3.90476 16.125 4.74484 16.125 6.425 16.125H6.575C8.25516 16.125 9.09524 16.125 9.73697 16.452C10.3015 16.7396 10.7604 17.1985 11.048 17.763C11.375 18.4048 11.375 19.2448 11.375 20.925V21.075C11.375 22.7552 11.375 23.5952 11.048 24.237C10.7604 24.8015 10.3015 25.2604 9.73697 25.548C9.09524 25.875 8.25516 25.875 6.575 25.875H6.425C4.74484 25.875 3.90476 25.875 3.26303 25.548C2.69854 25.2604 2.2396 24.8015 1.95198 24.237C1.625 23.5952 1.625 22.7552 1.625 21.075V20.925Z" stroke="#2966CC" stroke-width="1.5" stroke-linejoin="round"/>
<path d="M16.625 20.925C16.625 19.2448 16.625 18.4048 16.952 17.763C17.2396 17.1985 17.6985 16.7396 18.263 16.452C18.9048 16.125 19.7448 16.125 21.425 16.125H21.575C23.2552 16.125 24.0952 16.125 24.737 16.452C25.3015 16.7396 25.7604 17.1985 26.048 17.763C26.375 18.4048 26.375 19.2448 26.375 20.925V21.075C26.375 22.7552 26.375 23.5952 26.048 24.237C25.7604 24.8015 25.3015 25.2604 24.737 25.548C24.0952 25.875 23.2552 25.875 21.575 25.875H21.425C19.7448 25.875 18.9048 25.875 18.263 25.548C17.6985 25.2604 17.2396 24.8015 16.952 24.237C16.625 23.5952 16.625 22.7552 16.625 21.075V20.925Z" stroke="#2966CC" stroke-width="1.5" stroke-linejoin="round"/>
</svg>
