<svg width="30" height="31" viewBox="0 0 30 31" fill="none" xmlns="http://www.w3.org/2000/svg">
<path d="M15 6.12384V25.6085M12.8713 25.9023L14.4375 26.2817C14.6454 26.332 14.7493 26.3572 14.8546 26.3674C14.9513 26.3769 15.0487 26.3769 15.1454 26.3674C15.2507 26.3572 15.3546 26.332 15.5625 26.2817L17.1287 25.9023C17.6502 25.776 17.911 25.7128 18.1705 25.6595C20.1611 25.2511 22.2139 25.2511 24.2045 25.6595C24.464 25.7128 24.7248 25.776 25.2463 25.9023C25.4952 25.9626 25.6196 25.9927 25.72 26.0031C26.5261 26.0868 27.253 25.5156 27.3615 24.713C27.375 24.6131 27.375 24.4852 27.375 24.2293V7.24766C27.375 6.88702 27.375 6.7067 27.3406 6.54898C27.2427 6.10012 26.9442 5.7209 26.5307 5.52008C26.3854 5.44952 26.21 5.40704 25.8593 5.32207C24.7285 5.04816 24.1631 4.91121 23.596 4.81903C22.0008 4.55973 20.3742 4.55973 18.779 4.81903C18.2119 4.91121 17.6465 5.04816 16.5157 5.32207L15.5625 5.55298C15.3546 5.60334 15.2507 5.62852 15.1455 5.63876C15.0487 5.64818 14.9513 5.64818 14.8545 5.63876C14.7493 5.62851 14.6454 5.60333 14.4375 5.55298L13.4843 5.32206C12.3536 5.04815 11.7882 4.9112 11.2211 4.81902C9.62586 4.55968 7.99914 4.55968 6.40387 4.81899C5.83679 4.91117 5.27143 5.04812 4.14072 5.32202C3.78998 5.40698 3.61461 5.44946 3.46932 5.52002C3.0558 5.72084 2.75729 6.10006 2.65939 6.54894C2.625 6.70665 2.625 6.88696 2.625 7.24758V24.2293C2.625 24.4852 2.625 24.6131 2.63851 24.713C2.74703 25.5156 3.4739 26.0868 4.28002 26.0031C4.38036 25.9927 4.50479 25.9626 4.75365 25.9023C5.27521 25.776 5.53598 25.7128 5.79551 25.6595C7.78607 25.2511 9.83893 25.2511 11.8295 25.6595C12.089 25.7128 12.3498 25.776 12.8713 25.9023Z" stroke="#2966CC" stroke-width="2.25" stroke-linecap="round" stroke-linejoin="round"/>
</svg>
