<svg width="30" height="31" viewBox="0 0 30 31" fill="none" xmlns="http://www.w3.org/2000/svg">
<path d="M19.8749 11.375V7.925C19.8749 6.24484 19.8749 5.40476 19.5479 4.76303C19.2603 4.19854 18.8013 3.7396 18.2368 3.45198C17.5951 3.125 16.755 3.125 15.0749 3.125H14.9249C13.2447 3.125 12.4046 3.125 11.7629 3.45198C11.1984 3.7396 10.7395 4.19854 10.4518 4.76303C10.1249 5.40476 10.1249 6.24484 10.1249 7.925V11.375M9.29356 27.875H20.7061C22.502 27.875 23.3999 27.875 24.0653 27.5172C24.65 27.2027 25.1139 26.7032 25.3843 26.0969C25.692 25.4068 25.6257 24.5114 25.493 22.7204L24.7041 12.0704C24.5881 10.5036 24.53 9.72012 24.1878 9.12657C23.8865 8.60395 23.4347 8.18431 22.8912 7.92243C22.274 7.625 21.4884 7.625 19.9173 7.625H10.0825C8.51129 7.625 7.72571 7.625 7.1085 7.92243C6.56506 8.18431 6.11319 8.60395 5.81187 9.12657C5.46966 9.72012 5.41163 10.5036 5.29557 12.0704L4.50668 22.7204C4.37401 24.5114 4.30768 25.4068 4.6154 26.0969C4.88579 26.7032 5.34967 27.2027 5.93437 27.5172C6.59977 27.875 7.4977 27.875 9.29356 27.875Z" stroke="#2966CC" stroke-width="2.25" stroke-linecap="round" stroke-linejoin="round"/>
</svg>
