<svg width="28" height="27" viewBox="0 0 28 27" fill="none" xmlns="http://www.w3.org/2000/svg">
<path d="M11.6555 1.50699C12.2763 0.192531 13.8453 -0.398357 15.1706 0.285147C15.6885 0.552271 16.0978 0.984967 16.3443 1.50699L19.0223 7.17751C19.0847 7.30961 19.192 7.37711 19.2883 7.39173L25.2765 8.30104C26.7372 8.52284 27.6699 9.90986 27.4737 11.3211C27.3944 11.8912 27.1366 12.4259 26.7307 12.8394L22.3975 17.2533C22.3069 17.3456 22.2543 17.493 22.2787 17.6483L23.3602 23.8844C23.6012 25.3531 22.5727 26.7105 21.182 26.9597C20.6055 27.0631 20.0145 26.964 19.503 26.683L14.1469 23.7404C14.0531 23.6889 13.9467 23.6889 13.8529 23.7404L8.49685 26.683C7.19047 27.4007 5.60564 26.8536 4.95151 25.5533C4.69228 25.0381 4.60445 24.4522 4.69765 23.8844L5.72056 17.6519C5.74626 17.4953 5.6936 17.3463 5.60227 17.2533L1.26913 12.8394C0.261258 11.8128 0.242072 10.148 1.22252 9.09691C1.61837 8.67252 2.14461 8.38891 2.72326 8.30104L8.71151 7.39173C8.8078 7.37711 8.91509 7.30961 8.97747 7.17751L11.6555 1.50699Z" fill="#2966CC"/>
</svg>
