<svg width="33" height="31" viewBox="0 0 33 31" fill="none" xmlns="http://www.w3.org/2000/svg">
<path d="M15.1109 8.2986V10.417H2.86483V8.2986H7.74713V6.03902H10.3093V8.2986H15.1109ZM8.99797 11.3652C11.8023 11.3652 13.8399 12.8581 13.8399 14.9361C13.8399 17.0343 11.8023 18.5272 8.99797 18.5272C6.21385 18.5272 4.19636 17.0343 4.19636 14.9361C4.19636 12.8581 6.21385 11.3652 8.99797 11.3652ZM8.99797 13.5239C7.74713 13.5239 6.81909 14.0283 6.83927 14.9361C6.81909 15.8642 7.74713 16.3685 8.99797 16.3887C10.269 16.3685 11.1769 15.8642 11.197 14.9361C11.1769 14.0283 10.269 13.5239 8.99797 13.5239Z" fill="#2966CC"/>
<path d="M23.4409 13.015V22.8805H20.9392V15.093H16.6823V13.015H23.4409ZM30.8047 12.9747V22.8805H28.2627V15.0527H24.3488V12.9747H30.8047Z" fill="#2966CC"/>
</svg>
